<?xml version="1.0" standalone="no"?>
<svg xmlns="http://www.w3.org/2000/svg" viewBox="0 0 141.11328125 53" width="141.11328125" height="53"><rect fill="none" stroke="#6aad86" stroke-width="3" width="138.11328125" height="50" x="1.5" y="1.5"></rect><g fill="#ffffff" color="#ffffff" transform="translate(12, 12) scale(0.4461539)"><svg width="65.0" height="65.0" x="0.0" y="0.0" viewBox="0 0 65 65"><g><path d="M46.8,39c-0.7-0.6-1.1-1.5-1.1-2.3h-1.5c0,1.3,0.6,2.6,1.7,3.5c0.9,0.7,1.9,1.2,3.1,1.3v3.6h1.5v-3.6   c1.2-0.1,2.3-0.6,3.1-1.3c1.1-0.9,1.7-2.2,1.7-3.5c0-1.3-0.6-2.6-1.7-3.5c-1-0.9-2.4-1.4-3.9-1.4c-1.1,0-2.1-0.4-2.9-1   c-0.7-0.6-1.1-1.5-1.1-2.3c0-0.9,0.4-1.7,1.1-2.3c1.5-1.3,4.2-1.3,5.8,0c0.7,0.6,1.1,1.5,1.1,2.3h1.5c0-1.3-0.6-2.6-1.7-3.5   c-0.9-0.7-1.9-1.2-3.1-1.3v-3.6H49v3.6c-1.2,0.1-2.3,0.6-3.1,1.3c-1.1,0.9-1.7,2.2-1.7,3.5c0,1.3,0.6,2.6,1.7,3.5   c1,0.9,2.4,1.4,3.9,1.4c1.1,0,2.1,0.4,2.9,1c0.7,0.6,1.1,1.5,1.1,2.3c0,0.9-0.4,1.7-1.1,2.3C51.1,40.3,48.4,40.3,46.8,39z"></path><rect x="33" y="3.5" width="10.5" height="1.5"></rect><rect x="45.2" y="3.5" width="1.5" height="1.5"></rect><path d="M57.1-0.2H22.8c-2.6,0-4.8,2.1-4.8,4.8v17h-0.7h-0.3v0c-2,0.1-3.9,1.1-5.1,2.8c-0.7,0.9-1.7,1.5-2.9,1.5H8   c-0.1-0.1-0.1-0.1-0.2-0.2c-0.5-0.4-1.1-0.7-1.8-0.6c-0.7,0-1,0.1-1.3,0.1c-0.3,0-0.6,0.1-1.5,0.1l0,1.5c1,0,1.2,0,1.6-0.1   c0.3,0,0.6-0.1,1.2-0.1c0.3,0,0.6,0.1,0.7,0.2C6.9,26.8,7,26.9,7,27v13.1c0,0.2-0.1,0.3-0.2,0.4c-0.2,0.2-0.4,0.2-0.7,0.2   c-0.9-0.1-1.1-0.1-1.2-0.1c-0.2-0.1-0.4-0.1-1.7-0.1l0,1.5c0.3,0,1,0,1.1,0c0.2,0.1,0.4,0.1,1.6,0.2c0.1,0,0.1,0,0.2,0   c0.6,0,1.1-0.2,1.6-0.5l0,0c0.4,0,1.7,0.1,2.4,0.5c0.2,0.1,0.4,0.2,0.6,0.3c1,0.6,2,1.2,4.2,1.7c0.8,0.2,2,0.3,3.2,0.3v15.9   c0,2.6,2.1,4.8,4.8,4.8h34.3c2.6,0,4.8-2.1,4.8-4.8v-56C61.8,1.9,59.7-0.2,57.1-0.2z M22.8,1.3h34.3c1.8,0,3.3,1.5,3.3,3.3v3.1   H19.6V4.5C19.6,2.7,21,1.3,22.8,1.3z M19.6,9.1h40.8v45H19.6v-9.4c1.5,0,2.8-0.1,3-0.1h5c1.6,0,2.9-1.3,2.9-2.9   c0-0.5-0.2-1-0.4-1.5c1.3-0.3,2.3-1.4,2.3-2.8c0-0.7-0.2-1.3-0.6-1.8c0.9-0.5,1.5-1.4,1.5-2.5c0-0.5-0.1-1-0.4-1.4h3.2   c1.6,0,2.9-1.3,2.9-2.9c0-1.6-1.3-2.9-2.9-2.9H25.6c0.2-0.4,0.4-0.9,0.4-1.4c0-1.6-1.3-2.9-2.9-2.9H23h-3.4V9.1z M11.4,41.3   c-0.2-0.1-0.4-0.2-0.6-0.4c-0.7-0.4-1.7-0.6-2.4-0.7c0-0.1,0-0.1,0-0.2V27.3h0.6c1.6,0,3.2-0.8,4.1-2.1c0.9-1.4,2.5-2.2,4.1-2.2H23   h0.1c0.8,0,1.4,0.6,1.4,1.4c0,0.8-0.6,1.4-1.4,1.4h-3.3v1.5h3.3c0.2,0,0.3,0,0.5,0v0h12.7c0.8,0,1.4,0.6,1.4,1.4   c0,0.8-0.6,1.4-1.4,1.4h-5.8h-4.8h-2v1.5h2h4.8c0.8,0,1.4,0.6,1.4,1.4c0,0.8-0.6,1.4-1.4,1.4h-0.9h-3.9h-1.8v1.5h1.8h3.9   c0.8,0,1.4,0.6,1.4,1.4c0,0.8-0.6,1.4-1.4,1.4h-1.9h-3.7h-1.4v1.5h1.4h3.7c0.8,0,1.4,0.6,1.4,1.4c0,0.8-0.6,1.4-1.4,1.4h-5.1V43   l0-0.1c-0.1,0-5.1,0.4-7.3-0.1C13.3,42.4,12.3,41.9,11.4,41.3z M57.1,63.8H22.8c-1.8,0-3.3-1.5-3.3-3.3v-5h40.8v5   C60.3,62.3,58.9,63.8,57.1,63.8z"></path><path d="M39.9,56.9c-1.6,0-2.9,1.3-2.9,2.9c0,1.6,1.3,2.9,2.9,2.9c1.6,0,2.9-1.3,2.9-2.9C42.8,58.1,41.5,56.9,39.9,56.9z    M39.9,61.1c-0.7,0-1.4-0.6-1.4-1.4c0-0.7,0.6-1.4,1.4-1.4c0.7,0,1.4,0.6,1.4,1.4C41.3,60.5,40.7,61.1,39.9,61.1z"></path></g></svg></g><line x1="51.5" y1="0" x2="51.5" y2="100%" stroke="#6aad86" stroke-width="3"></line><path fill="#ffffff" fill-rule="nonzero" d="M4.48 20.38L4.48 20.38Q4.13 20.38 3.66 20.30Q3.19 20.23 2.69 19.98Q2.19 19.73 1.71 19.28Q1.23 18.83 0.85 18.09Q0.47 17.34 0.23 16.26Q0 15.18 0 13.68L0 13.68L0 6.59Q0 5.07 0.25 4.00Q0.49 2.93 0.90 2.20Q1.31 1.46 1.85 1.03Q2.38 0.60 2.95 0.37Q3.53 0.14 4.09 0.07Q4.65 0 5.13 0L5.13 0Q6.35 0 7.19 0.33Q8.03 0.67 8.55 1.25Q9.07 1.83 9.30 2.60Q9.53 3.38 9.53 4.24L9.53 4.24Q9.53 4.89 9.45 5.43Q9.38 5.98 9.25 6.63L9.25 6.63L6.82 6.63L6.82 5.68Q6.82 2.39 5.05 2.39L5.05 2.39Q4.57 2.39 4.22 2.55Q3.87 2.72 3.63 3.11Q3.40 3.50 3.29 4.15Q3.18 4.79 3.18 5.75L3.18 5.75L3.18 14.82Q3.18 15.76 3.29 16.38Q3.40 17.00 3.63 17.38Q3.86 17.75 4.20 17.91Q4.55 18.07 5.03 18.07L5.03 18.07Q5.53 18.07 5.89 17.81Q6.26 17.54 6.49 17.09Q6.73 16.63 6.84 16.01Q6.95 15.39 6.95 14.66L6.95 14.66L6.95 12.05L5.39 12.05L5.39 10.05L9.90 10.05L9.90 20.19L7.89 20.19L7.56 18.29Q6.98 19.41 6.24 19.89Q5.50 20.38 4.48 20.38ZM17.02 20.37L17.02 20.37Q16.55 20.37 16.00 20.29Q15.46 20.21 14.91 19.97Q14.37 19.72 13.87 19.27Q13.37 18.82 12.99 18.08Q12.61 17.34 12.38 16.26Q12.15 15.18 12.15 13.68L12.15 13.68L12.15 6.59Q12.15 5.07 12.39 4.00Q12.62 2.93 13.01 2.20Q13.39 1.46 13.90 1.03Q14.40 0.60 14.94 0.37Q15.48 0.14 16.01 0.07Q16.55 0 17.00 0L17.00 0Q18.20 0 19.00 0.33Q19.80 0.67 20.29 1.25Q20.78 1.83 20.98 2.60Q21.19 3.38 21.19 4.24L21.19 4.24Q21.19 4.89 21.12 5.43Q21.06 5.98 20.93 6.63L20.93 6.63L18.47 6.63L18.47 5.61Q18.47 3.96 18.11 3.14Q17.74 2.32 17.04 2.32L17.04 2.32Q16.62 2.32 16.30 2.48Q15.98 2.65 15.77 3.04Q15.56 3.43 15.45 4.08Q15.34 4.72 15.34 5.68L15.34 5.68L15.34 14.82Q15.34 15.76 15.43 16.38Q15.52 17.00 15.71 17.38Q15.91 17.75 16.24 17.91Q16.56 18.07 17.02 18.07L17.02 18.07Q17.31 18.07 17.58 17.94Q17.85 17.80 18.05 17.51Q18.26 17.23 18.38 16.79Q18.50 16.35 18.50 15.75L18.50 15.75L18.50 13.79L21.28 13.79L21.28 15.64Q21.28 18.06 20.18 19.21Q19.08 20.36 17.02 20.37ZM28.80 20.19L28.80 0.18L31.84 0.18Q32.41 0.18 33.10 0.23Q33.79 0.28 34.47 0.47Q35.16 0.67 35.79 1.07Q36.43 1.46 36.93 2.15Q37.42 2.84 37.72 3.87Q38.02 4.90 38.02 6.38L38.02 6.38L38.02 7.08Q38.02 8.68 37.74 9.83Q37.46 10.97 37.01 11.75Q36.55 12.53 35.95 13.00Q35.34 13.46 34.69 13.71Q34.04 13.95 33.38 14.02Q32.72 14.10 32.13 14.10L32.13 14.10L31.84 14.10L31.84 20.19L28.80 20.19ZM31.84 11.87L31.99 11.87Q32.81 11.87 33.38 11.63Q33.94 11.39 34.27 10.88Q34.61 10.37 34.75 9.57Q34.90 8.77 34.90 7.64L34.90 7.64L34.90 5.84Q34.90 4.95 34.77 4.29Q34.64 3.64 34.31 3.22Q33.97 2.80 33.41 2.60Q32.85 2.39 31.99 2.39L31.99 2.39L31.84 2.39L31.84 11.87ZM38.82 20.19L42.52 0.18L46.01 0.18L49.71 20.19L46.64 20.19L46.09 16.61L42.43 16.61L41.91 20.19L38.82 20.19ZM42.79 14.32L45.74 14.32L44.33 4.35L44.20 4.35L42.79 14.32ZM54.02 20.19L54.02 13.52L49.99 0.18L53.05 0.18L55.50 9.75L55.64 9.75L58.07 0.18L61.11 0.18L57.06 13.52L57.06 20.19L54.02 20.19Z" transform="translate(65 16.311)"></path></svg>